<svg width="420" height="200" viewBox="0 0 420 200" fill="none" xmlns="http://www.w3.org/2000/svg">
<path d="M184.804 92.116C185.5 91.156 186.448 90.376 187.648 89.776C188.872 89.152 190.228 88.84 191.716 88.84C193.468 88.84 195.052 89.26 196.468 90.1C197.884 90.94 199 92.14 199.816 93.7C200.632 95.236 201.04 97 201.04 98.992C201.04 100.984 200.632 102.772 199.816 104.356C199 105.916 197.872 107.14 196.432 108.028C195.016 108.892 193.444 109.324 191.716 109.324C190.18 109.324 188.812 109.024 187.612 108.424C186.436 107.824 185.5 107.056 184.804 106.12V109H180.7V82.36H184.804V92.116ZM196.864 98.992C196.864 97.624 196.576 96.448 196 95.464C195.448 94.456 194.704 93.7 193.768 93.196C192.856 92.668 191.872 92.404 190.816 92.404C189.784 92.404 188.8 92.668 187.864 93.196C186.952 93.724 186.208 94.492 185.632 95.5C185.08 96.508 184.804 97.696 184.804 99.064C184.804 100.432 185.08 101.632 185.632 102.664C186.208 103.672 186.952 104.44 187.864 104.968C188.8 105.496 189.784 105.76 190.816 105.76C191.872 105.76 192.856 105.496 193.768 104.968C194.704 104.416 195.448 103.624 196 102.592C196.576 101.56 196.864 100.36 196.864 98.992ZM209.202 92.044C209.802 91.036 210.594 90.256 211.578 89.704C212.586 89.128 213.774 88.84 215.142 88.84V93.088H214.098C212.49 93.088 211.266 93.496 210.426 94.312C209.61 95.128 209.202 96.544 209.202 98.56V109H205.098V89.164H209.202V92.044ZM217.547 98.992C217.547 97 217.955 95.236 218.771 93.7C219.611 92.164 220.739 90.976 222.155 90.136C223.595 89.272 225.179 88.84 226.907 88.84C228.467 88.84 229.823 89.152 230.975 89.776C232.151 90.376 233.087 91.132 233.783 92.044V89.164H237.923V109H233.783V106.048C233.087 106.984 232.139 107.764 230.939 108.388C229.739 109.012 228.371 109.324 226.835 109.324C225.131 109.324 223.571 108.892 222.155 108.028C220.739 107.14 219.611 105.916 218.771 104.356C217.955 102.772 217.547 100.984 217.547 98.992ZM233.783 99.064C233.783 97.696 233.495 96.508 232.919 95.5C232.367 94.492 231.635 93.724 230.723 93.196C229.811 92.668 228.827 92.404 227.771 92.404C226.715 92.404 225.731 92.668 224.819 93.196C223.907 93.7 223.163 94.456 222.587 95.464C222.035 96.448 221.759 97.624 221.759 98.992C221.759 100.36 222.035 101.56 222.587 102.592C223.163 103.624 223.907 104.416 224.819 104.968C225.755 105.496 226.739 105.76 227.771 105.76C228.827 105.76 229.811 105.496 230.723 104.968C231.635 104.44 232.367 103.672 232.919 102.664C233.495 101.632 233.783 100.432 233.783 99.064ZM253.321 88.84C254.881 88.84 256.273 89.164 257.497 89.812C258.745 90.46 259.717 91.42 260.413 92.692C261.109 93.964 261.457 95.5 261.457 97.3V109H257.389V97.912C257.389 96.136 256.945 94.78 256.057 93.844C255.169 92.884 253.957 92.404 252.421 92.404C250.885 92.404 249.661 92.884 248.749 93.844C247.861 94.78 247.417 96.136 247.417 97.912V109H243.313V89.164H247.417V91.432C248.089 90.616 248.941 89.98 249.973 89.524C251.029 89.068 252.145 88.84 253.321 88.84ZM265.324 98.992C265.324 97 265.732 95.236 266.548 93.7C267.388 92.164 268.516 90.976 269.932 90.136C271.372 89.272 272.968 88.84 274.72 88.84C276.016 88.84 277.288 89.128 278.536 89.704C279.808 90.256 280.816 91 281.56 91.936V82.36H285.7V109H281.56V106.012C280.888 106.972 279.952 107.764 278.752 108.388C277.576 109.012 276.22 109.324 274.684 109.324C272.956 109.324 271.372 108.892 269.932 108.028C268.516 107.14 267.388 105.916 266.548 104.356C265.732 102.772 265.324 100.984 265.324 98.992ZM281.56 99.064C281.56 97.696 281.272 96.508 280.696 95.5C280.144 94.492 279.412 93.724 278.5 93.196C277.588 92.668 276.604 92.404 275.548 92.404C274.492 92.404 273.508 92.668 272.596 93.196C271.684 93.7 270.94 94.456 270.364 95.464C269.812 96.448 269.536 97.624 269.536 98.992C269.536 100.36 269.812 101.56 270.364 102.592C270.94 103.624 271.684 104.416 272.596 104.968C273.532 105.496 274.516 105.76 275.548 105.76C276.604 105.76 277.588 105.496 278.5 104.968C279.412 104.44 280.144 103.672 280.696 102.664C281.272 101.632 281.56 100.432 281.56 99.064ZM289.723 98.992C289.723 97 290.131 95.236 290.947 93.7C291.787 92.164 292.915 90.976 294.331 90.136C295.771 89.272 297.355 88.84 299.083 88.84C300.643 88.84 301.999 89.152 303.151 89.776C304.327 90.376 305.263 91.132 305.959 92.044V89.164H310.099V109H305.959V106.048C305.263 106.984 304.315 107.764 303.115 108.388C301.915 109.012 300.547 109.324 299.011 109.324C297.307 109.324 295.747 108.892 294.331 108.028C292.915 107.14 291.787 105.916 290.947 104.356C290.131 102.772 289.723 100.984 289.723 98.992ZM305.959 99.064C305.959 97.696 305.671 96.508 305.095 95.5C304.543 94.492 303.811 93.724 302.899 93.196C301.987 92.668 301.003 92.404 299.947 92.404C298.891 92.404 297.907 92.668 296.995 93.196C296.083 93.7 295.339 94.456 294.763 95.464C294.211 96.448 293.935 97.624 293.935 98.992C293.935 100.36 294.211 101.56 294.763 102.592C295.339 103.624 296.083 104.416 296.995 104.968C297.931 105.496 298.915 105.76 299.947 105.76C301.003 105.76 301.987 105.496 302.899 104.968C303.811 104.44 304.543 103.672 305.095 102.664C305.671 101.632 305.959 100.432 305.959 99.064ZM324.093 109.324C322.221 109.324 320.529 108.904 319.017 108.064C317.505 107.2 316.317 106 315.453 104.464C314.589 102.904 314.157 101.104 314.157 99.064C314.157 97.048 314.601 95.26 315.489 93.7C316.377 92.14 317.589 90.94 319.125 90.1C320.661 89.26 322.377 88.84 324.273 88.84C326.169 88.84 327.885 89.26 329.421 90.1C330.957 90.94 332.169 92.14 333.057 93.7C333.945 95.26 334.389 97.048 334.389 99.064C334.389 101.08 333.933 102.868 333.021 104.428C332.109 105.988 330.861 107.2 329.277 108.064C327.717 108.904 325.989 109.324 324.093 109.324ZM324.093 105.76C325.149 105.76 326.133 105.508 327.045 105.004C327.981 104.5 328.737 103.744 329.313 102.736C329.889 101.728 330.177 100.504 330.177 99.064C330.177 97.624 329.901 96.412 329.349 95.428C328.797 94.42 328.065 93.664 327.153 93.16C326.241 92.656 325.257 92.404 324.201 92.404C323.145 92.404 322.161 92.656 321.249 93.16C320.361 93.664 319.653 94.42 319.125 95.428C318.597 96.412 318.333 97.624 318.333 99.064C318.333 101.2 318.873 102.856 319.953 104.032C321.057 105.184 322.437 105.76 324.093 105.76ZM348.706 88.84C350.218 88.84 351.562 89.164 352.738 89.812C353.938 90.46 354.874 91.42 355.546 92.692C356.242 93.964 356.59 95.5 356.59 97.3V109H352.522V97.912C352.522 96.136 352.078 94.78 351.19 93.844C350.302 92.884 349.09 92.404 347.554 92.404C346.018 92.404 344.794 92.884 343.882 93.844C342.994 94.78 342.55 96.136 342.55 97.912V109H338.446V82.36H342.55V91.468C343.246 90.628 344.122 89.98 345.178 89.524C346.258 89.068 347.434 88.84 348.706 88.84ZM372.085 88.84C373.597 88.84 374.941 89.164 376.117 89.812C377.317 90.46 378.253 91.42 378.925 92.692C379.621 93.964 379.969 95.5 379.969 97.3V109H375.901V97.912C375.901 96.136 375.457 94.78 374.569 93.844C373.681 92.884 372.469 92.404 370.933 92.404C369.397 92.404 368.173 92.884 367.261 93.844C366.373 94.78 365.929 96.136 365.929 97.912V109H361.825V82.36H365.929V91.468C366.625 90.628 367.501 89.98 368.557 89.524C369.637 89.068 370.813 88.84 372.085 88.84ZM190.492 122.656C194.26 122.656 197.104 123.484 199.024 125.14C200.944 126.772 201.904 129.124 201.904 132.196C201.904 133.3 201.808 134.344 201.616 135.328C200.896 139.36 199.204 142.48 196.54 144.688C193.876 146.896 190.36 148 185.992 148H179.332L183.832 122.656H190.492ZM186.136 147.352C190.312 147.352 193.648 146.296 196.144 144.184C198.64 142.072 200.224 139.12 200.896 135.328C201.088 134.224 201.184 133.24 201.184 132.376C201.184 129.496 200.272 127.264 198.448 125.68C196.624 124.096 193.924 123.304 190.348 123.304H184.408L180.196 147.352H186.136ZM225.525 123.304L223.473 135.004H234.057L233.949 135.652H223.365L221.313 147.352H232.977L232.833 148H220.449L224.949 122.656H237.333L237.189 123.304H225.525ZM256.9 122.656L261.796 146.74L275.296 122.656H276.16L261.94 148H261.22L256.036 122.656H256.9ZM296.865 122.656L292.365 148H291.645L296.145 122.656H296.865ZM315.672 135.364C316.104 132.868 317.004 130.636 318.372 128.668C319.764 126.7 321.48 125.176 323.52 124.096C325.56 122.992 327.744 122.44 330.072 122.44C332.784 122.44 334.992 123.136 336.696 124.528C338.4 125.896 339.492 127.78 339.972 130.18H339.252C338.868 128.068 337.848 126.364 336.192 125.068C334.56 123.748 332.472 123.088 329.928 123.088C327.816 123.088 325.812 123.592 323.916 124.6C322.02 125.584 320.412 127.012 319.092 128.884C317.772 130.732 316.884 132.892 316.428 135.364C316.26 136.228 316.176 137.14 316.176 138.1C316.176 140.044 316.572 141.736 317.364 143.176C318.18 144.616 319.296 145.72 320.712 146.488C322.128 147.256 323.76 147.64 325.608 147.64C327.672 147.64 329.64 147.16 331.512 146.2C333.408 145.24 335.028 143.86 336.372 142.06C337.74 140.236 338.664 138.124 339.144 135.724H327.192L327.3 135.076H339.936L339.864 135.364C339.432 137.86 338.52 140.092 337.128 142.06C335.76 144.028 334.056 145.564 332.016 146.668C330 147.748 327.828 148.288 325.5 148.288C323.484 148.288 321.708 147.868 320.172 147.028C318.66 146.188 317.484 145 316.644 143.464C315.828 141.928 315.42 140.152 315.42 138.136C315.42 137.2 315.504 136.276 315.672 135.364ZM375.864 148H375.144L363.66 123.988L359.412 148H358.692L363.156 122.692H363.876L375.396 146.668L379.608 122.692H380.328L375.864 148Z" fill="white"/>
<g filter="url(#filter0_f)">
<ellipse cx="100" cy="115" rx="50" ry="25" fill="white"/>
</g>
<circle cx="100" cy="115" r="25" fill="white"/>
<circle cx="119.5" cy="84.5" r="2.5" fill="white"/>
<circle cx="70.5" cy="140.5" r="2.5" fill="white"/>
<circle cx="143.5" cy="113.5" r="2.5" fill="white"/>
<circle cx="131.5" cy="123.5" r="2.5" fill="white"/>
<circle cx="70.5" cy="97.5" r="2.5" fill="white"/>
<circle cx="60.5" cy="111.5" r="1.5" fill="white"/>
<circle cx="69.5" cy="124.5" r="1.5" fill="white"/>
<circle cx="125.5" cy="98.5" r="1.5" fill="white"/>
<circle cx="83.5" cy="88.5" r="1.5" fill="white"/>
<circle cx="83.5" cy="138.5" r="1.5" fill="white"/>
<circle cx="123.5" cy="137.5" r="1.5" fill="white"/>
<circle cx="91.5" cy="148.5" r="1.5" fill="white"/>
<circle cx="100.5" cy="75.5" r="1.5" fill="white"/>
<circle cx="137.5" cy="105.5" r="1.5" fill="white"/>
<circle cx="59.5" cy="132.5" r="1.5" fill="white"/>
<circle cx="105.5" cy="86.5" r="1.5" fill="white"/>
<circle cx="115.5" cy="148.5" r="1.5" fill="white"/>
<g opacity="0.6">
<line x1="88.9" y1="98.0209" x2="88.9" y2="46" stroke="url(#paint0_linear)" stroke-opacity="0.8" stroke-width="0.2"/>
<line y1="-0.1" x2="52.021" y2="-0.1" transform="matrix(0 1 1 0 89 97.9791)" stroke="url(#paint1_linear)" stroke-opacity="0.8" stroke-width="0.2"/>
</g>
<g opacity="0.6">
<line x1="111.9" y1="98.0209" x2="111.9" y2="46" stroke="url(#paint2_linear)" stroke-opacity="0.8" stroke-width="0.2"/>
<line y1="-0.1" x2="52.021" y2="-0.1" transform="matrix(0 1 1 0 112 97.9791)" stroke="url(#paint3_linear)" stroke-opacity="0.8" stroke-width="0.2"/>
</g>
<g opacity="0.6">
<line x1="122.9" y1="99.3372" x2="122.9" y2="60.3057" stroke="url(#paint4_linear)" stroke-opacity="0.8" stroke-width="0.2"/>
<line y1="-0.1" x2="39.0314" y2="-0.1" transform="matrix(0 1 1 0 123 99.3057)" stroke="url(#paint5_linear)" stroke-opacity="0.8" stroke-width="0.2"/>
</g>
<g opacity="0.6">
<line x1="76.9" y1="99.3372" x2="76.9" y2="60.3057" stroke="url(#paint6_linear)" stroke-opacity="0.8" stroke-width="0.2"/>
<line y1="-0.1" x2="39.0314" y2="-0.1" transform="matrix(0 1 1 0 77 99.3057)" stroke="url(#paint7_linear)" stroke-opacity="0.8" stroke-width="0.2"/>
</g>
<g opacity="0.6">
<line x1="65.9" y1="99.3294" x2="65.9" y2="79.8137" stroke="url(#paint8_linear)" stroke-opacity="0.8" stroke-width="0.2"/>
<line y1="-0.1" x2="19.5157" y2="-0.1" transform="matrix(0 1 1 0 66 99.3137)" stroke="url(#paint9_linear)" stroke-opacity="0.8" stroke-width="0.2"/>
</g>
<g opacity="0.6">
<line x1="133.9" y1="99.3294" x2="133.9" y2="79.8137" stroke="url(#paint10_linear)" stroke-opacity="0.8" stroke-width="0.2"/>
<line y1="-0.1" x2="19.5157" y2="-0.1" transform="matrix(0 1 1 0 134 99.3137)" stroke="url(#paint11_linear)" stroke-opacity="0.8" stroke-width="0.2"/>
</g>
<defs>
<filter id="filter0_f" x="0" y="40" width="200" height="150" filterUnits="userSpaceOnUse" color-interpolation-filters="sRGB">
<feFlood flood-opacity="0" result="BackgroundImageFix"/>
<feBlend mode="normal" in="SourceGraphic" in2="BackgroundImageFix" result="shape"/>
<feGaussianBlur stdDeviation="25" result="effect1_foregroundBlur"/>
</filter>
<linearGradient id="paint0_linear" x1="88.0001" y1="69.0618" x2="88.0001" y2="45.1614" gradientUnits="userSpaceOnUse">
<stop stop-color="white"/>
<stop offset="1" stop-color="white" stop-opacity="0"/>
</linearGradient>
<linearGradient id="paint1_linear" x1="28.9591" y1="-0.999933" x2="52.8595" y2="-0.999943" gradientUnits="userSpaceOnUse">
<stop stop-color="white"/>
<stop offset="1" stop-color="white" stop-opacity="0"/>
</linearGradient>
<linearGradient id="paint2_linear" x1="111" y1="69.0618" x2="111" y2="45.1614" gradientUnits="userSpaceOnUse">
<stop stop-color="white"/>
<stop offset="1" stop-color="white" stop-opacity="0"/>
</linearGradient>
<linearGradient id="paint3_linear" x1="28.9591" y1="-0.999933" x2="52.8595" y2="-0.999943" gradientUnits="userSpaceOnUse">
<stop stop-color="white"/>
<stop offset="1" stop-color="white" stop-opacity="0"/>
</linearGradient>
<linearGradient id="paint4_linear" x1="122" y1="77.6091" x2="122" y2="59.6765" gradientUnits="userSpaceOnUse">
<stop stop-color="white"/>
<stop offset="1" stop-color="white" stop-opacity="0"/>
</linearGradient>
<linearGradient id="paint5_linear" x1="21.7281" y1="-0.999933" x2="39.6606" y2="-0.999939" gradientUnits="userSpaceOnUse">
<stop stop-color="white"/>
<stop offset="1" stop-color="white" stop-opacity="0"/>
</linearGradient>
<linearGradient id="paint6_linear" x1="76.0001" y1="77.6091" x2="76.0001" y2="59.6765" gradientUnits="userSpaceOnUse">
<stop stop-color="white"/>
<stop offset="1" stop-color="white" stop-opacity="0"/>
</linearGradient>
<linearGradient id="paint7_linear" x1="21.7281" y1="-0.999933" x2="39.6606" y2="-0.999939" gradientUnits="userSpaceOnUse">
<stop stop-color="white"/>
<stop offset="1" stop-color="white" stop-opacity="0"/>
</linearGradient>
<linearGradient id="paint8_linear" x1="65.0001" y1="88.4654" x2="65.0001" y2="79.4991" gradientUnits="userSpaceOnUse">
<stop stop-color="white"/>
<stop offset="1" stop-color="white" stop-opacity="0"/>
</linearGradient>
<linearGradient id="paint9_linear" x1="10.864" y1="-0.999933" x2="19.8303" y2="-0.999934" gradientUnits="userSpaceOnUse">
<stop stop-color="white"/>
<stop offset="1" stop-color="white" stop-opacity="0"/>
</linearGradient>
<linearGradient id="paint10_linear" x1="133" y1="88.4654" x2="133" y2="79.4991" gradientUnits="userSpaceOnUse">
<stop stop-color="white"/>
<stop offset="1" stop-color="white" stop-opacity="0"/>
</linearGradient>
<linearGradient id="paint11_linear" x1="10.864" y1="-0.999933" x2="19.8303" y2="-0.999934" gradientUnits="userSpaceOnUse">
<stop stop-color="white"/>
<stop offset="1" stop-color="white" stop-opacity="0"/>
</linearGradient>
</defs>
</svg>
